<mxfile host="app.diagrams.net" modified="2023-07-26T07:48:49.232Z" agent="Mozilla/5.0 (Windows NT 10.0; Win64; x64) AppleWebKit/537.36 (KHTML, like Gecko) Chrome/114.0.0.0 Safari/537.36" etag="BRmImdAQSCsqLImBdY56" version="21.6.5" type="github">
  <diagram name="第 1 页" id="cnlhaJmNF9WSGoH__1HM">
    <mxGraphModel dx="1403" dy="704" grid="1" gridSize="10" guides="1" tooltips="1" connect="1" arrows="1" fold="1" page="1" pageScale="1" pageWidth="827" pageHeight="1169" math="0" shadow="0">
      <root>
        <mxCell id="0" />
        <mxCell id="1" parent="0" />
        <mxCell id="y_fuz6T118yYJJkcoksZ-1" value="联易融服务" style="rounded=0;whiteSpace=wrap;html=1;fontColor=#000000;" parent="1" diagramCategory="general" diagramName="Rectangle" vertex="1">
          <mxGeometry x="236" y="1550" width="97" height="40" as="geometry" />
        </mxCell>
        <mxCell id="y_fuz6T118yYJJkcoksZ-2" value="联易融客户端" style="rounded=0;whiteSpace=wrap;html=1;fontColor=#000000;" parent="1" diagramCategory="general" diagramName="Rectangle" vertex="1">
          <mxGeometry x="634.5" y="1550" width="97" height="40" as="geometry" />
        </mxCell>
        <mxCell id="y_fuz6T118yYJJkcoksZ-3" value="SCB" style="rounded=0;whiteSpace=wrap;html=1;fontColor=#000000;" parent="1" diagramCategory="general" diagramName="Rectangle" vertex="1">
          <mxGeometry x="33" y="1550" width="97" height="40" as="geometry" />
        </mxCell>
        <mxCell id="y_fuz6T118yYJJkcoksZ-4" value="联易融内管" style="rounded=0;whiteSpace=wrap;html=1;fontColor=#000000;" parent="1" diagramCategory="general" diagramName="Rectangle" vertex="1">
          <mxGeometry x="436" y="1550" width="97" height="40" as="geometry" />
        </mxCell>
        <mxCell id="y_fuz6T118yYJJkcoksZ-5" value="运营" style="rounded=0;whiteSpace=wrap;html=1;fontColor=#000000;" parent="1" diagramCategory="general" diagramName="Rectangle" vertex="1">
          <mxGeometry x="833" y="1550" width="97" height="40" as="geometry" />
        </mxCell>
        <mxCell id="y_fuz6T118yYJJkcoksZ-6" value="SCB" style="shape=umlLifeline;perimeter=lifelinePerimeter;whiteSpace=wrap;html=1;container=1;collapsible=0;recursiveResize=0;outlineConnect=0;" parent="1" diagramCategory="uml" diagramName="Lifeline" vertex="1">
          <mxGeometry x="30" y="40" width="100" height="2000" as="geometry" />
        </mxCell>
        <mxCell id="y_fuz6T118yYJJkcoksZ-7" value="" style="html=1;points=[];perimeter=orthogonalPerimeter;" parent="y_fuz6T118yYJJkcoksZ-6" diagramCategory="uml" diagramName="SelfCall" vertex="1">
          <mxGeometry x="45" y="80" width="10" height="40" as="geometry" />
        </mxCell>
        <mxCell id="y_fuz6T118yYJJkcoksZ-8" value="放MT942到H2H" style="edgeStyle=orthogonalEdgeStyle;html=1;align=left;spacingLeft=2;endArrow=block;rounded=0;entryX=1;entryY=0;" parent="y_fuz6T118yYJJkcoksZ-6" target="y_fuz6T118yYJJkcoksZ-7" edge="1">
          <mxGeometry relative="1" as="geometry">
            <mxPoint x="55" y="60" as="sourcePoint" />
            <Array as="points">
              <mxPoint x="80" y="60" />
            </Array>
          </mxGeometry>
        </mxCell>
        <mxCell id="y_fuz6T118yYJJkcoksZ-9" value="" style="html=1;points=[];perimeter=orthogonalPerimeter;" parent="y_fuz6T118yYJJkcoksZ-6" diagramCategory="uml" diagramName="Activation" vertex="1">
          <mxGeometry x="45" y="160" width="10" height="40" as="geometry" />
        </mxCell>
        <mxCell id="y_fuz6T118yYJJkcoksZ-10" value="联易融服务" style="shape=umlLifeline;perimeter=lifelinePerimeter;whiteSpace=wrap;html=1;container=1;collapsible=0;recursiveResize=0;outlineConnect=0;" parent="1" diagramCategory="uml" diagramName="Lifeline" vertex="1">
          <mxGeometry x="230" y="40" width="100" height="2000" as="geometry" />
        </mxCell>
        <mxCell id="y_fuz6T118yYJJkcoksZ-11" value="" style="html=1;points=[];perimeter=orthogonalPerimeter;" parent="y_fuz6T118yYJJkcoksZ-10" diagramCategory="uml" diagramName="Activation" vertex="1">
          <mxGeometry x="45" y="160" width="10" height="40" as="geometry" />
        </mxCell>
        <mxCell id="y_fuz6T118yYJJkcoksZ-12" value="" style="html=1;points=[];perimeter=orthogonalPerimeter;" parent="y_fuz6T118yYJJkcoksZ-10" diagramCategory="uml" diagramName="Activation" vertex="1">
          <mxGeometry x="45" y="240" width="10" height="40" as="geometry" />
        </mxCell>
        <mxCell id="y_fuz6T118yYJJkcoksZ-13" value="" style="html=1;points=[];perimeter=orthogonalPerimeter;" parent="y_fuz6T118yYJJkcoksZ-10" diagramCategory="uml" diagramName="SelfCall" vertex="1">
          <mxGeometry x="45" y="360" width="10" height="40" as="geometry" />
        </mxCell>
        <mxCell id="y_fuz6T118yYJJkcoksZ-14" value="文件备份(如需要)" style="edgeStyle=orthogonalEdgeStyle;html=1;align=left;spacingLeft=2;endArrow=block;rounded=0;entryX=1;entryY=0;" parent="y_fuz6T118yYJJkcoksZ-10" target="y_fuz6T118yYJJkcoksZ-13" edge="1">
          <mxGeometry relative="1" as="geometry">
            <mxPoint x="50" y="280" as="sourcePoint" />
            <Array as="points">
              <mxPoint x="75" y="280" />
              <mxPoint x="75" y="360" />
            </Array>
          </mxGeometry>
        </mxCell>
        <mxCell id="y_fuz6T118yYJJkcoksZ-15" value="" style="html=1;points=[];perimeter=orthogonalPerimeter;" parent="y_fuz6T118yYJJkcoksZ-10" diagramCategory="uml" diagramName="SelfCall" vertex="1">
          <mxGeometry x="45" y="560.03" width="10" height="40" as="geometry" />
        </mxCell>
        <mxCell id="y_fuz6T118yYJJkcoksZ-16" value="" style="html=1;points=[];perimeter=orthogonalPerimeter;" parent="y_fuz6T118yYJJkcoksZ-10" diagramCategory="uml" diagramName="SelfCall" vertex="1">
          <mxGeometry x="45" y="640.03" width="10" height="40" as="geometry" />
        </mxCell>
        <mxCell id="y_fuz6T118yYJJkcoksZ-17" value="执行入账通知" style="edgeStyle=orthogonalEdgeStyle;html=1;align=left;spacingLeft=2;endArrow=block;rounded=0;entryX=1;entryY=0;" parent="y_fuz6T118yYJJkcoksZ-10" target="y_fuz6T118yYJJkcoksZ-16" edge="1">
          <mxGeometry relative="1" as="geometry">
            <mxPoint x="50" y="620.03" as="sourcePoint" />
            <Array as="points">
              <mxPoint x="75" y="620.03" />
            </Array>
          </mxGeometry>
        </mxCell>
        <mxCell id="y_fuz6T118yYJJkcoksZ-18" value="联易融服务" style="rounded=0;whiteSpace=wrap;html=1;fontColor=#000000;" parent="y_fuz6T118yYJJkcoksZ-10" diagramCategory="general" diagramName="Rectangle" vertex="1">
          <mxGeometry x="3" y="770" width="97" height="40" as="geometry" />
        </mxCell>
        <mxCell id="y_fuz6T118yYJJkcoksZ-19" value="调用失败" style="rhombus;whiteSpace=wrap;html=1;fontColor=#FF0000;" parent="y_fuz6T118yYJJkcoksZ-10" diagramCategory="general" diagramName="Diamond" vertex="1">
          <mxGeometry x="10" y="1573" width="80" height="80" as="geometry" />
        </mxCell>
        <mxCell id="y_fuz6T118yYJJkcoksZ-20" value="联易融内管" style="shape=umlLifeline;perimeter=lifelinePerimeter;whiteSpace=wrap;html=1;container=1;collapsible=0;recursiveResize=0;outlineConnect=0;" parent="1" diagramCategory="uml" diagramName="Lifeline" vertex="1">
          <mxGeometry x="430" y="40" width="110" height="2000" as="geometry" />
        </mxCell>
        <mxCell id="y_fuz6T118yYJJkcoksZ-21" value="" style="html=1;points=[];perimeter=orthogonalPerimeter;" parent="y_fuz6T118yYJJkcoksZ-20" diagramCategory="uml" diagramName="Activation" vertex="1">
          <mxGeometry x="45" y="240" width="10" height="40" as="geometry" />
        </mxCell>
        <mxCell id="y_fuz6T118yYJJkcoksZ-22" value="" style="html=1;points=[];perimeter=orthogonalPerimeter;" parent="y_fuz6T118yYJJkcoksZ-20" diagramCategory="uml" diagramName="Activation" vertex="1">
          <mxGeometry x="45" y="320" width="10" height="40" as="geometry" />
        </mxCell>
        <mxCell id="y_fuz6T118yYJJkcoksZ-23" value="" style="html=1;points=[];perimeter=orthogonalPerimeter;" parent="y_fuz6T118yYJJkcoksZ-20" diagramCategory="uml" diagramName="Activation" vertex="1">
          <mxGeometry x="50" y="1310" width="10" height="130" as="geometry" />
        </mxCell>
        <mxCell id="y_fuz6T118yYJJkcoksZ-24" value="联易融客户端" style="shape=umlLifeline;perimeter=lifelinePerimeter;whiteSpace=wrap;html=1;container=1;collapsible=0;recursiveResize=0;outlineConnect=0;" parent="1" diagramCategory="uml" diagramName="Lifeline" vertex="1">
          <mxGeometry x="599.5" y="40" width="167" height="2010" as="geometry" />
        </mxCell>
        <mxCell id="y_fuz6T118yYJJkcoksZ-25" value="联易融客户端" style="rounded=0;whiteSpace=wrap;html=1;fontColor=#000000;" parent="y_fuz6T118yYJJkcoksZ-24" diagramCategory="general" diagramName="Rectangle" vertex="1">
          <mxGeometry x="35" y="770" width="97" height="40" as="geometry" />
        </mxCell>
        <mxCell id="y_fuz6T118yYJJkcoksZ-26" value="运营" style="shape=umlLifeline;perimeter=lifelinePerimeter;whiteSpace=wrap;html=1;container=1;collapsible=0;recursiveResize=0;outlineConnect=0;" parent="1" diagramCategory="uml" diagramName="Lifeline" vertex="1">
          <mxGeometry x="827" y="36" width="100" height="2000" as="geometry" />
        </mxCell>
        <mxCell id="y_fuz6T118yYJJkcoksZ-27" value="" style="html=1;points=[];perimeter=orthogonalPerimeter;fontColor=#FF0000;" parent="y_fuz6T118yYJJkcoksZ-26" diagramCategory="uml" diagramName="Activation" vertex="1">
          <mxGeometry x="45" y="1404" width="10" height="80" as="geometry" />
        </mxCell>
        <mxCell id="y_fuz6T118yYJJkcoksZ-28" value="定时获取文件" style="edgeStyle=orthogonalEdgeStyle;rounded=0;orthogonalLoop=1;jettySize=auto;html=1;" parent="1" source="y_fuz6T118yYJJkcoksZ-11" target="y_fuz6T118yYJJkcoksZ-9" edge="1">
          <mxGeometry relative="1" as="geometry" />
        </mxCell>
        <mxCell id="y_fuz6T118yYJJkcoksZ-29" value="文件取回" style="edgeStyle=orthogonalEdgeStyle;rounded=0;orthogonalLoop=1;jettySize=auto;html=1;" parent="1" source="y_fuz6T118yYJJkcoksZ-9" target="y_fuz6T118yYJJkcoksZ-12" edge="1">
          <mxGeometry relative="1" as="geometry">
            <Array as="points">
              <mxPoint x="80" y="300" />
            </Array>
          </mxGeometry>
        </mxCell>
        <mxCell id="y_fuz6T118yYJJkcoksZ-30" value="文件展示" style="edgeStyle=orthogonalEdgeStyle;rounded=0;orthogonalLoop=1;jettySize=auto;html=1;" parent="1" source="y_fuz6T118yYJJkcoksZ-12" target="y_fuz6T118yYJJkcoksZ-21" edge="1">
          <mxGeometry relative="1" as="geometry" />
        </mxCell>
        <mxCell id="y_fuz6T118yYJJkcoksZ-31" value="文件下载&lt;br /&gt;可下载正常也可下载异常" style="edgeStyle=orthogonalEdgeStyle;rounded=0;orthogonalLoop=1;jettySize=auto;html=1;" parent="1" source="y_fuz6T118yYJJkcoksZ-20" target="y_fuz6T118yYJJkcoksZ-20" edge="1">
          <mxGeometry relative="1" as="geometry">
            <Array as="points">
              <mxPoint x="600" y="300" />
              <mxPoint x="600" y="380" />
            </Array>
          </mxGeometry>
        </mxCell>
        <mxCell id="y_fuz6T118yYJJkcoksZ-32" value="是，&lt;br&gt;保留此文件" style="edgeStyle=orthogonalEdgeStyle;rounded=0;orthogonalLoop=1;jettySize=auto;html=1;exitX=1;exitY=0.5;exitDx=0;exitDy=0;align=left;fontColor=#FF0000;" parent="1" source="y_fuz6T118yYJJkcoksZ-33" edge="1">
          <mxGeometry x="-0.2167" relative="1" as="geometry">
            <mxPoint x="280" y="310" as="targetPoint" />
            <Array as="points">
              <mxPoint x="410" y="508" />
              <mxPoint x="410" y="310" />
            </Array>
            <mxPoint as="offset" />
          </mxGeometry>
        </mxCell>
        <mxCell id="y_fuz6T118yYJJkcoksZ-33" value="通过文件名判断&lt;br /&gt;文件是否重复" style="rhombus;whiteSpace=wrap;html=1;" parent="1" diagramCategory="general" diagramName="Diamond" vertex="1">
          <mxGeometry x="200" y="478" width="160" height="60" as="geometry" />
        </mxCell>
        <mxCell id="y_fuz6T118yYJJkcoksZ-34" value="" style="edgeStyle=orthogonalEdgeStyle;rounded=0;orthogonalLoop=1;jettySize=auto;html=1;" parent="1" source="y_fuz6T118yYJJkcoksZ-13" target="y_fuz6T118yYJJkcoksZ-33" edge="1">
          <mxGeometry relative="1" as="geometry" />
        </mxCell>
        <mxCell id="y_fuz6T118yYJJkcoksZ-35" value="否，&lt;br /&gt;解析成&lt;b&gt;&lt;font color=&quot;#ff0000&quot;&gt;单条数据&lt;/font&gt;&lt;/b&gt;" style="edgeStyle=orthogonalEdgeStyle;html=1;align=left;spacingLeft=2;endArrow=block;rounded=0;entryX=1;entryY=0;exitX=1;exitY=1;exitDx=0;exitDy=0;" parent="1" source="y_fuz6T118yYJJkcoksZ-33" target="y_fuz6T118yYJJkcoksZ-15" edge="1">
          <mxGeometry relative="1" as="geometry">
            <mxPoint x="280" y="580.03" as="sourcePoint" />
            <Array as="points">
              <mxPoint x="320" y="600" />
            </Array>
          </mxGeometry>
        </mxCell>
        <mxCell id="y_fuz6T118yYJJkcoksZ-36" value="SCB" style="rounded=0;whiteSpace=wrap;html=1;fontColor=#000000;" parent="1" diagramCategory="general" diagramName="Rectangle" vertex="1">
          <mxGeometry x="30" y="810" width="97" height="40" as="geometry" />
        </mxCell>
        <mxCell id="y_fuz6T118yYJJkcoksZ-37" value="联易融内管" style="rounded=0;whiteSpace=wrap;html=1;fontColor=#000000;" parent="1" diagramCategory="general" diagramName="Rectangle" vertex="1">
          <mxGeometry x="433" y="810" width="97" height="40" as="geometry" />
        </mxCell>
        <mxCell id="y_fuz6T118yYJJkcoksZ-38" value="运营" style="rounded=0;whiteSpace=wrap;html=1;fontColor=#000000;" parent="1" diagramCategory="general" diagramName="Rectangle" vertex="1">
          <mxGeometry x="830" y="810" width="97" height="40" as="geometry" />
        </mxCell>
        <mxCell id="y_fuz6T118yYJJkcoksZ-39" value="世琦之前设计的异常文件不落库存储" style="shape=document;whiteSpace=wrap;html=1;boundedLbl=1;fontColor=#FF0000;align=left;" parent="1" diagramCategory="general" diagramName="Document" vertex="1">
          <mxGeometry x="960" y="398" width="120" height="80" as="geometry" />
        </mxCell>
        <mxCell id="y_fuz6T118yYJJkcoksZ-40" style="edgeStyle=orthogonalEdgeStyle;rounded=0;orthogonalLoop=1;jettySize=auto;html=1;exitX=1;exitY=0.5;exitDx=0;exitDy=0;entryX=0;entryY=0.5;entryDx=0;entryDy=0;" parent="1" source="y_fuz6T118yYJJkcoksZ-41" target="y_fuz6T118yYJJkcoksZ-50" edge="1">
          <mxGeometry relative="1" as="geometry" />
        </mxCell>
        <mxCell id="y_fuz6T118yYJJkcoksZ-41" value="" style="rounded=0;whiteSpace=wrap;html=1;" parent="1" diagramCategory="general" diagramName="Rectangle" vertex="1">
          <mxGeometry x="183.5" y="880" width="286.5" height="310" as="geometry" />
        </mxCell>
        <mxCell id="y_fuz6T118yYJJkcoksZ-42" value="是" style="edgeStyle=orthogonalEdgeStyle;rounded=0;orthogonalLoop=1;jettySize=auto;html=1;exitX=1;exitY=0.5;exitDx=0;exitDy=0;" parent="1" source="y_fuz6T118yYJJkcoksZ-44" target="y_fuz6T118yYJJkcoksZ-45" edge="1">
          <mxGeometry relative="1" as="geometry">
            <mxPoint x="395" y="1040" as="targetPoint" />
          </mxGeometry>
        </mxCell>
        <mxCell id="y_fuz6T118yYJJkcoksZ-43" value="否" style="edgeStyle=orthogonalEdgeStyle;rounded=0;orthogonalLoop=1;jettySize=auto;html=1;exitX=0.5;exitY=1;exitDx=0;exitDy=0;" parent="1" source="y_fuz6T118yYJJkcoksZ-44" target="y_fuz6T118yYJJkcoksZ-49" edge="1">
          <mxGeometry relative="1" as="geometry" />
        </mxCell>
        <mxCell id="y_fuz6T118yYJJkcoksZ-44" value="是否有重复的&lt;br /&gt;txnRefId" style="rhombus;whiteSpace=wrap;html=1;" parent="1" diagramCategory="general" diagramName="Diamond" vertex="1">
          <mxGeometry x="200" y="920" width="160" height="60" as="geometry" />
        </mxCell>
        <mxCell id="y_fuz6T118yYJJkcoksZ-45" value="过滤掉此部分数据" style="rounded=0;whiteSpace=wrap;html=1;" parent="1" diagramCategory="general" diagramName="Rectangle" vertex="1">
          <mxGeometry x="340" y="990" width="120" height="60" as="geometry" />
        </mxCell>
        <mxCell id="y_fuz6T118yYJJkcoksZ-46" value="" style="edgeStyle=orthogonalEdgeStyle;rounded=0;orthogonalLoop=1;jettySize=auto;html=1;" parent="1" source="y_fuz6T118yYJJkcoksZ-16" target="y_fuz6T118yYJJkcoksZ-44" edge="1">
          <mxGeometry relative="1" as="geometry">
            <mxPoint x="280" y="800.03" as="targetPoint" />
          </mxGeometry>
        </mxCell>
        <mxCell id="y_fuz6T118yYJJkcoksZ-47" value="否" style="edgeStyle=orthogonalEdgeStyle;rounded=0;orthogonalLoop=1;jettySize=auto;html=1;exitX=1;exitY=0.5;exitDx=0;exitDy=0;entryX=0.25;entryY=1;entryDx=0;entryDy=0;" parent="1" source="y_fuz6T118yYJJkcoksZ-49" target="y_fuz6T118yYJJkcoksZ-45" edge="1">
          <mxGeometry relative="1" as="geometry">
            <Array as="points">
              <mxPoint x="370" y="1130" />
            </Array>
          </mxGeometry>
        </mxCell>
        <mxCell id="y_fuz6T118yYJJkcoksZ-48" style="edgeStyle=orthogonalEdgeStyle;rounded=0;orthogonalLoop=1;jettySize=auto;html=1;exitX=0.5;exitY=1;exitDx=0;exitDy=0;entryX=0.5;entryY=0;entryDx=0;entryDy=0;" parent="1" source="y_fuz6T118yYJJkcoksZ-49" target="y_fuz6T118yYJJkcoksZ-53" edge="1">
          <mxGeometry relative="1" as="geometry" />
        </mxCell>
        <mxCell id="y_fuz6T118yYJJkcoksZ-49" value="是否SCB （母户）" style="rhombus;whiteSpace=wrap;html=1;" parent="1" diagramCategory="general" diagramName="Diamond" vertex="1">
          <mxGeometry x="200" y="1100" width="160" height="60" as="geometry" />
        </mxCell>
        <mxCell id="y_fuz6T118yYJJkcoksZ-50" value="&lt;span style&gt;写入渠道通知失败记录表account_notify_fail_info&lt;/span&gt;" style="rounded=0;whiteSpace=wrap;html=1;" parent="1" diagramCategory="general" diagramName="Rectangle" vertex="1">
          <mxGeometry x="960" y="970" width="120" height="60" as="geometry" />
        </mxCell>
        <mxCell id="y_fuz6T118yYJJkcoksZ-51" value="满足校验，通过" style="edgeStyle=orthogonalEdgeStyle;rounded=0;orthogonalLoop=1;jettySize=auto;html=1;exitX=0.5;exitY=1;exitDx=0;exitDy=0;entryX=0.25;entryY=0;entryDx=0;entryDy=0;fontColor=#FF0000;" parent="1" source="y_fuz6T118yYJJkcoksZ-53" target="y_fuz6T118yYJJkcoksZ-59" edge="1">
          <mxGeometry relative="1" as="geometry">
            <Array as="points">
              <mxPoint x="280" y="1330" />
              <mxPoint x="190" y="1330" />
              <mxPoint x="190" y="1400" />
              <mxPoint x="250" y="1400" />
            </Array>
          </mxGeometry>
        </mxCell>
        <mxCell id="y_fuz6T118yYJJkcoksZ-52" value="有任意条件不满足" style="edgeStyle=orthogonalEdgeStyle;rounded=0;orthogonalLoop=1;jettySize=auto;html=1;exitX=1;exitY=0.5;exitDx=0;exitDy=0;entryX=0;entryY=0.5;entryDx=0;entryDy=0;fontColor=#FF0000;" parent="1" source="y_fuz6T118yYJJkcoksZ-53" target="y_fuz6T118yYJJkcoksZ-57" edge="1">
          <mxGeometry relative="1" as="geometry">
            <Array as="points">
              <mxPoint x="520" y="1280" />
              <mxPoint x="520" y="1280" />
            </Array>
          </mxGeometry>
        </mxCell>
        <mxCell id="y_fuz6T118yYJJkcoksZ-53" value="满足所有条件" style="rhombus;whiteSpace=wrap;html=1;" parent="1" diagramCategory="general" diagramName="Diamond" vertex="1">
          <mxGeometry x="200" y="1250" width="160" height="60" as="geometry" />
        </mxCell>
        <mxCell id="y_fuz6T118yYJJkcoksZ-54" value="" style="edgeStyle=orthogonalEdgeStyle;rounded=0;orthogonalLoop=1;jettySize=auto;html=1;" parent="1" source="y_fuz6T118yYJJkcoksZ-55" target="y_fuz6T118yYJJkcoksZ-53" edge="1">
          <mxGeometry relative="1" as="geometry" />
        </mxCell>
        <mxCell id="y_fuz6T118yYJJkcoksZ-55" value="1.交易参考号不为空&lt;br /&gt;2.txn date不为空&lt;br /&gt;3.value date不为空&lt;br /&gt;4.&lt;span style&gt;交易金额不为空&lt;br /&gt;&lt;/span&gt;5.交易币种不为空&lt;br /&gt;6.母户不为空&lt;br /&gt;7.VA子账号不为空" style="shape=document;whiteSpace=wrap;html=1;boundedLbl=1;fontColor=#FF0000;align=left;" parent="1" diagramCategory="general" diagramName="Document" vertex="1">
          <mxGeometry x="20" y="1210" width="150" height="140" as="geometry" />
        </mxCell>
        <mxCell id="y_fuz6T118yYJJkcoksZ-56" style="edgeStyle=orthogonalEdgeStyle;rounded=0;orthogonalLoop=1;jettySize=auto;html=1;exitX=0.5;exitY=1;exitDx=0;exitDy=0;fontColor=#FF0000;entryX=0.671;entryY=0.271;entryDx=0;entryDy=0;entryPerimeter=0;" parent="1" source="y_fuz6T118yYJJkcoksZ-57" target="y_fuz6T118yYJJkcoksZ-23" edge="1">
          <mxGeometry relative="1" as="geometry">
            <Array as="points">
              <mxPoint x="590" y="1385" />
            </Array>
          </mxGeometry>
        </mxCell>
        <mxCell id="y_fuz6T118yYJJkcoksZ-57" value="数据存入入账异常办理，发送告警" style="rounded=0;whiteSpace=wrap;html=1;" parent="1" diagramCategory="general" diagramName="Rectangle" vertex="1">
          <mxGeometry x="530" y="1250" width="120" height="60" as="geometry" />
        </mxCell>
        <mxCell id="y_fuz6T118yYJJkcoksZ-58" style="edgeStyle=orthogonalEdgeStyle;rounded=0;orthogonalLoop=1;jettySize=auto;html=1;exitX=0.25;exitY=1;exitDx=0;exitDy=0;fontColor=#FF0000;" parent="1" source="y_fuz6T118yYJJkcoksZ-59" target="y_fuz6T118yYJJkcoksZ-19" edge="1">
          <mxGeometry relative="1" as="geometry">
            <mxPoint x="280" y="1572.9999999999995" as="sourcePoint" />
            <Array as="points">
              <mxPoint x="250" y="1510" />
              <mxPoint x="200" y="1510" />
              <mxPoint x="200" y="1653" />
            </Array>
          </mxGeometry>
        </mxCell>
        <mxCell id="y_fuz6T118yYJJkcoksZ-59" value="调用正常收款接口" style="rounded=0;whiteSpace=wrap;html=1;" parent="1" diagramCategory="general" diagramName="Rectangle" vertex="1">
          <mxGeometry x="220" y="1420" width="120" height="60" as="geometry" />
        </mxCell>
        <mxCell id="y_fuz6T118yYJJkcoksZ-60" value="结束" style="rounded=1;whiteSpace=wrap;html=1;fontColor=#FF0000;" parent="1" diagramCategory="general" diagramName="RoundedRectangle" vertex="1">
          <mxGeometry x="240" y="1890" width="120" height="60" as="geometry" />
        </mxCell>
        <mxCell id="y_fuz6T118yYJJkcoksZ-61" style="edgeStyle=orthogonalEdgeStyle;rounded=0;orthogonalLoop=1;jettySize=auto;html=1;exitX=0.5;exitY=1;exitDx=0;exitDy=0;entryX=0.5;entryY=0;entryDx=0;entryDy=0;fontColor=#FF0000;" parent="1" source="y_fuz6T118yYJJkcoksZ-62" target="y_fuz6T118yYJJkcoksZ-60" edge="1">
          <mxGeometry relative="1" as="geometry" />
        </mxCell>
        <mxCell id="y_fuz6T118yYJJkcoksZ-62" value="调用成功&lt;br /&gt;记账" style="rounded=0;whiteSpace=wrap;html=1;" parent="1" diagramCategory="general" diagramName="Rectangle" vertex="1">
          <mxGeometry x="240" y="1780" width="120" height="60" as="geometry" />
        </mxCell>
        <mxCell id="y_fuz6T118yYJJkcoksZ-63" value="否" style="edgeStyle=orthogonalEdgeStyle;rounded=0;orthogonalLoop=1;jettySize=auto;html=1;fontColor=#FF0000;" parent="1" source="y_fuz6T118yYJJkcoksZ-19" target="y_fuz6T118yYJJkcoksZ-62" edge="1">
          <mxGeometry relative="1" as="geometry" />
        </mxCell>
        <mxCell id="y_fuz6T118yYJJkcoksZ-64" value="&lt;span style=&quot;color: rgb(0, 0, 0); font-family: Helvetica; font-size: 12px; font-style: normal; font-variant-ligatures: no-common-ligatures; font-variant-caps: normal; font-weight: 400; letter-spacing: normal; orphans: 2; text-align: center; text-indent: 0px; text-transform: none; widows: 2; word-spacing: 0px; -webkit-text-stroke-width: 0px; background-color: rgb(248, 249, 250); text-decoration-thickness: initial; text-decoration-style: initial; text-decoration-color: initial; float: none; display: inline !important;&quot;&gt;运营人工办理单据&lt;/span&gt;" style="edgeStyle=orthogonalEdgeStyle;rounded=0;orthogonalLoop=1;jettySize=auto;html=1;fontColor=#FF0000;" parent="1" target="y_fuz6T118yYJJkcoksZ-20" edge="1">
          <mxGeometry relative="1" as="geometry">
            <mxPoint x="792" y="1400" as="targetPoint" />
            <Array as="points">
              <mxPoint x="877" y="1470" />
            </Array>
            <mxPoint x="877" y="1470" as="sourcePoint" />
          </mxGeometry>
        </mxCell>
        <mxCell id="y_fuz6T118yYJJkcoksZ-65" value="" style="edgeStyle=orthogonalEdgeStyle;rounded=0;orthogonalLoop=1;jettySize=auto;html=1;fontColor=#FF0000;entryX=0.75;entryY=0;entryDx=0;entryDy=0;" parent="1" source="y_fuz6T118yYJJkcoksZ-23" target="y_fuz6T118yYJJkcoksZ-59" edge="1">
          <mxGeometry relative="1" as="geometry">
            <Array as="points">
              <mxPoint x="310" y="1390" />
            </Array>
          </mxGeometry>
        </mxCell>
        <mxCell id="y_fuz6T118yYJJkcoksZ-66" value="标记为&lt;br /&gt;待办理" style="edgeStyle=orthogonalEdgeStyle;rounded=0;orthogonalLoop=1;jettySize=auto;html=1;exitX=1;exitY=0.5;exitDx=0;exitDy=0;fontColor=#FF0000;" parent="1" source="y_fuz6T118yYJJkcoksZ-62" target="y_fuz6T118yYJJkcoksZ-20" edge="1">
          <mxGeometry relative="1" as="geometry">
            <mxPoint x="320" y="1800" as="sourcePoint" />
            <mxPoint x="422.55" y="1490" as="targetPoint" />
            <Array as="points">
              <mxPoint x="410" y="1810" />
              <mxPoint x="410" y="1430" />
            </Array>
          </mxGeometry>
        </mxCell>
        <mxCell id="y_fuz6T118yYJJkcoksZ-72" value="华美" style="shape=umlLifeline;perimeter=lifelinePerimeter;whiteSpace=wrap;html=1;container=1;collapsible=0;recursiveResize=0;outlineConnect=0;" parent="1" diagramCategory="uml" diagramName="Lifeline" vertex="1">
          <mxGeometry x="1350" y="40" width="100" height="2000" as="geometry" />
        </mxCell>
        <mxCell id="y_fuz6T118yYJJkcoksZ-73" value="" style="html=1;points=[];perimeter=orthogonalPerimeter;" parent="y_fuz6T118yYJJkcoksZ-72" diagramCategory="uml" diagramName="SelfCall" vertex="1">
          <mxGeometry x="45" y="80" width="10" height="40" as="geometry" />
        </mxCell>
        <mxCell id="y_fuz6T118yYJJkcoksZ-74" value="放 prior day文件&lt;br&gt;到华美SFTP" style="edgeStyle=orthogonalEdgeStyle;html=1;align=left;spacingLeft=2;endArrow=block;rounded=0;entryX=1;entryY=0;exitX=0.5;exitY=0.03;exitDx=0;exitDy=0;exitPerimeter=0;" parent="y_fuz6T118yYJJkcoksZ-72" target="y_fuz6T118yYJJkcoksZ-73" edge="1" source="y_fuz6T118yYJJkcoksZ-72">
          <mxGeometry x="-0.0068" relative="1" as="geometry">
            <mxPoint x="55" y="60" as="sourcePoint" />
            <Array as="points">
              <mxPoint x="80" y="60" />
              <mxPoint x="80" y="80" />
            </Array>
            <mxPoint as="offset" />
          </mxGeometry>
        </mxCell>
        <mxCell id="y_fuz6T118yYJJkcoksZ-75" value="" style="html=1;points=[];perimeter=orthogonalPerimeter;" parent="y_fuz6T118yYJJkcoksZ-72" diagramCategory="uml" diagramName="Activation" vertex="1">
          <mxGeometry x="45" y="160" width="10" height="40" as="geometry" />
        </mxCell>
        <mxCell id="y_fuz6T118yYJJkcoksZ-76" value="联易融服务" style="shape=umlLifeline;perimeter=lifelinePerimeter;whiteSpace=wrap;html=1;container=1;collapsible=0;recursiveResize=0;outlineConnect=0;" parent="1" diagramCategory="uml" diagramName="Lifeline" vertex="1">
          <mxGeometry x="1528" y="36" width="144" height="2000" as="geometry" />
        </mxCell>
        <mxCell id="y_fuz6T118yYJJkcoksZ-77" value="" style="html=1;points=[];perimeter=orthogonalPerimeter;" parent="y_fuz6T118yYJJkcoksZ-76" diagramCategory="uml" diagramName="Activation" vertex="1">
          <mxGeometry x="67" y="164" width="10" height="40" as="geometry" />
        </mxCell>
        <mxCell id="y_fuz6T118yYJJkcoksZ-78" value="" style="html=1;points=[];perimeter=orthogonalPerimeter;" parent="y_fuz6T118yYJJkcoksZ-76" diagramCategory="uml" diagramName="Activation" vertex="1">
          <mxGeometry x="67" y="244" width="10" height="40" as="geometry" />
        </mxCell>
        <mxCell id="y_fuz6T118yYJJkcoksZ-79" value="" style="html=1;points=[];perimeter=orthogonalPerimeter;" parent="y_fuz6T118yYJJkcoksZ-76" diagramCategory="uml" diagramName="SelfCall" vertex="1">
          <mxGeometry x="67" y="324" width="10" height="40" as="geometry" />
        </mxCell>
        <mxCell id="y_fuz6T118yYJJkcoksZ-80" value="文件备份" style="edgeStyle=orthogonalEdgeStyle;html=1;align=left;spacingLeft=2;endArrow=block;rounded=0;entryX=1;entryY=0;" parent="y_fuz6T118yYJJkcoksZ-76" target="y_fuz6T118yYJJkcoksZ-79" edge="1">
          <mxGeometry relative="1" as="geometry">
            <mxPoint x="77" y="284" as="sourcePoint" />
            <Array as="points">
              <mxPoint x="102" y="284" />
              <mxPoint x="102" y="324" />
            </Array>
          </mxGeometry>
        </mxCell>
        <mxCell id="y_fuz6T118yYJJkcoksZ-81" value="" style="html=1;points=[];perimeter=orthogonalPerimeter;" parent="y_fuz6T118yYJJkcoksZ-76" diagramCategory="uml" diagramName="SelfCall" vertex="1">
          <mxGeometry x="67" y="524" width="10" height="40" as="geometry" />
        </mxCell>
        <mxCell id="y_fuz6T118yYJJkcoksZ-82" value="" style="html=1;points=[];perimeter=orthogonalPerimeter;" parent="y_fuz6T118yYJJkcoksZ-76" diagramCategory="uml" diagramName="SelfCall" vertex="1">
          <mxGeometry x="67" y="604" width="10" height="40" as="geometry" />
        </mxCell>
        <mxCell id="y_fuz6T118yYJJkcoksZ-83" value="运行规则B，&lt;br&gt;执行入账通知" style="edgeStyle=orthogonalEdgeStyle;html=1;align=left;spacingLeft=2;endArrow=block;rounded=0;entryX=1;entryY=0;exitX=1.049;exitY=0.498;exitDx=0;exitDy=0;exitPerimeter=0;" parent="y_fuz6T118yYJJkcoksZ-76" target="y_fuz6T118yYJJkcoksZ-82" edge="1" source="y_fuz6T118yYJJkcoksZ-81">
          <mxGeometry relative="1" as="geometry">
            <mxPoint x="58" y="623.03" as="sourcePoint" />
            <Array as="points">
              <mxPoint x="113" y="544" />
              <mxPoint x="113" y="604" />
            </Array>
          </mxGeometry>
        </mxCell>
        <mxCell id="y_fuz6T118yYJJkcoksZ-85" value="调用失败" style="rhombus;whiteSpace=wrap;html=1;fontColor=#000000;" parent="y_fuz6T118yYJJkcoksZ-76" diagramCategory="general" diagramName="Diamond" vertex="1">
          <mxGeometry x="32" y="1364" width="80" height="46" as="geometry" />
        </mxCell>
        <mxCell id="y_fuz6T118yYJJkcoksZ-99" value="通过文件名判断&lt;br /&gt;文件是否重复" style="rhombus;whiteSpace=wrap;html=1;" parent="y_fuz6T118yYJJkcoksZ-76" diagramCategory="general" diagramName="Diamond" vertex="1">
          <mxGeometry x="-8" y="404" width="160" height="60" as="geometry" />
        </mxCell>
        <mxCell id="y_fuz6T118yYJJkcoksZ-100" value="" style="edgeStyle=orthogonalEdgeStyle;rounded=0;orthogonalLoop=1;jettySize=auto;html=1;" parent="y_fuz6T118yYJJkcoksZ-76" source="y_fuz6T118yYJJkcoksZ-79" target="y_fuz6T118yYJJkcoksZ-99" edge="1">
          <mxGeometry relative="1" as="geometry" />
        </mxCell>
        <mxCell id="y_fuz6T118yYJJkcoksZ-101" value="否，将文件里面&lt;br&gt;内容全部解析入库" style="edgeStyle=orthogonalEdgeStyle;html=1;align=left;spacingLeft=2;endArrow=block;rounded=0;entryX=1;entryY=0;exitX=0.5;exitY=1;exitDx=0;exitDy=0;" parent="y_fuz6T118yYJJkcoksZ-76" source="y_fuz6T118yYJJkcoksZ-99" target="y_fuz6T118yYJJkcoksZ-81" edge="1">
          <mxGeometry x="-0.0021" relative="1" as="geometry">
            <mxPoint x="58" y="543.03" as="sourcePoint" />
            <Array as="points">
              <mxPoint x="112" y="464" />
              <mxPoint x="112" y="524" />
            </Array>
            <mxPoint as="offset" />
          </mxGeometry>
        </mxCell>
        <mxCell id="y_fuz6T118yYJJkcoksZ-98" value="是，保留&lt;br&gt;此文件" style="edgeStyle=orthogonalEdgeStyle;rounded=0;orthogonalLoop=1;jettySize=auto;html=1;exitX=1;exitY=0.5;exitDx=0;exitDy=0;align=left;fontColor=#000000;entryX=1.007;entryY=0.679;entryDx=0;entryDy=0;entryPerimeter=0;" parent="y_fuz6T118yYJJkcoksZ-76" source="y_fuz6T118yYJJkcoksZ-99" edge="1" target="y_fuz6T118yYJJkcoksZ-78">
          <mxGeometry x="-0.4868" relative="1" as="geometry">
            <mxPoint x="85" y="275" as="targetPoint" />
            <Array as="points">
              <mxPoint x="212" y="434" />
              <mxPoint x="212" y="271" />
            </Array>
            <mxPoint as="offset" />
          </mxGeometry>
        </mxCell>
        <mxCell id="acTJYgkgQK9AkDypiMQt-4" style="edgeStyle=orthogonalEdgeStyle;rounded=0;orthogonalLoop=1;jettySize=auto;html=1;exitX=0.5;exitY=1;exitDx=0;exitDy=0;entryX=0.5;entryY=0;entryDx=0;entryDy=0;" edge="1" parent="y_fuz6T118yYJJkcoksZ-76" source="y_fuz6T118yYJJkcoksZ-125" target="y_fuz6T118yYJJkcoksZ-85">
          <mxGeometry relative="1" as="geometry" />
        </mxCell>
        <mxCell id="y_fuz6T118yYJJkcoksZ-125" value="调用正常收款接口" style="rounded=0;whiteSpace=wrap;html=1;" parent="y_fuz6T118yYJJkcoksZ-76" diagramCategory="general" diagramName="Rectangle" vertex="1">
          <mxGeometry x="12" y="1244" width="120" height="60" as="geometry" />
        </mxCell>
        <mxCell id="y_fuz6T118yYJJkcoksZ-119" value="满足所有条件" style="rhombus;whiteSpace=wrap;html=1;" parent="y_fuz6T118yYJJkcoksZ-76" diagramCategory="general" diagramName="Diamond" vertex="1">
          <mxGeometry x="-8" y="924" width="160" height="60" as="geometry" />
        </mxCell>
        <mxCell id="y_fuz6T118yYJJkcoksZ-117" value="满足校验，通过" style="edgeStyle=orthogonalEdgeStyle;rounded=0;orthogonalLoop=1;jettySize=auto;html=1;exitX=0.5;exitY=1;exitDx=0;exitDy=0;entryX=0.5;entryY=0;entryDx=0;entryDy=0;fontColor=#FF0000;" parent="y_fuz6T118yYJJkcoksZ-76" source="y_fuz6T118yYJJkcoksZ-119" target="y_fuz6T118yYJJkcoksZ-125" edge="1">
          <mxGeometry relative="1" as="geometry">
            <Array as="points">
              <mxPoint x="72" y="1041" />
              <mxPoint x="-5" y="1041" />
              <mxPoint x="-5" y="1171" />
              <mxPoint x="72" y="1171" />
            </Array>
          </mxGeometry>
        </mxCell>
        <mxCell id="y_fuz6T118yYJJkcoksZ-128" value="进入收款审核" style="rounded=0;whiteSpace=wrap;html=1;" parent="y_fuz6T118yYJJkcoksZ-76" diagramCategory="general" diagramName="Rectangle" vertex="1">
          <mxGeometry x="12" y="1484" width="120" height="36" as="geometry" />
        </mxCell>
        <mxCell id="y_fuz6T118yYJJkcoksZ-129" value="否" style="edgeStyle=orthogonalEdgeStyle;rounded=0;orthogonalLoop=1;jettySize=auto;html=1;fontColor=#000000;" parent="y_fuz6T118yYJJkcoksZ-76" source="y_fuz6T118yYJJkcoksZ-85" target="y_fuz6T118yYJJkcoksZ-128" edge="1">
          <mxGeometry relative="1" as="geometry" />
        </mxCell>
        <mxCell id="y_fuz6T118yYJJkcoksZ-86" value="联易融内管" style="shape=umlLifeline;perimeter=lifelinePerimeter;whiteSpace=wrap;html=1;container=1;collapsible=0;recursiveResize=0;outlineConnect=0;" parent="1" diagramCategory="uml" diagramName="Lifeline" vertex="1">
          <mxGeometry x="1745" y="40" width="109" height="2000" as="geometry" />
        </mxCell>
        <mxCell id="y_fuz6T118yYJJkcoksZ-88" value="" style="html=1;points=[];perimeter=orthogonalPerimeter;" parent="y_fuz6T118yYJJkcoksZ-86" diagramCategory="uml" diagramName="Activation" vertex="1">
          <mxGeometry x="50" y="401" width="10" height="40" as="geometry" />
        </mxCell>
        <mxCell id="y_fuz6T118yYJJkcoksZ-89" value="" style="html=1;points=[];perimeter=orthogonalPerimeter;" parent="y_fuz6T118yYJJkcoksZ-86" diagramCategory="uml" diagramName="Activation" vertex="1">
          <mxGeometry x="49.5" y="1240" width="10" height="40" as="geometry" />
        </mxCell>
        <mxCell id="y_fuz6T118yYJJkcoksZ-87" value="" style="html=1;points=[];perimeter=orthogonalPerimeter;" parent="y_fuz6T118yYJJkcoksZ-86" diagramCategory="uml" diagramName="Activation" vertex="1">
          <mxGeometry x="50" y="320" width="10" height="40" as="geometry" />
        </mxCell>
        <mxCell id="y_fuz6T118yYJJkcoksZ-97" value="文件下载" style="edgeStyle=orthogonalEdgeStyle;rounded=0;orthogonalLoop=1;jettySize=auto;html=1;entryX=1.052;entryY=0.244;entryDx=0;entryDy=0;entryPerimeter=0;fontColor=#0000FF;" parent="y_fuz6T118yYJJkcoksZ-86" source="y_fuz6T118yYJJkcoksZ-87" target="y_fuz6T118yYJJkcoksZ-88" edge="1">
          <mxGeometry relative="1" as="geometry">
            <Array as="points">
              <mxPoint x="135" y="345" />
              <mxPoint x="135" y="411" />
              <mxPoint x="61" y="411" />
            </Array>
            <mxPoint x="85" y="411" as="targetPoint" />
          </mxGeometry>
        </mxCell>
        <mxCell id="acTJYgkgQK9AkDypiMQt-3" value="下载所需要的文件" style="html=1;verticalAlign=bottom;endArrow=open;dashed=1;endSize=8;edgeStyle=elbowEdgeStyle;elbow=vertical;curved=0;rounded=0;fontColor=#0000FF;" edge="1" parent="y_fuz6T118yYJJkcoksZ-86">
          <mxGeometry relative="1" as="geometry">
            <mxPoint x="466.5" y="430" as="sourcePoint" />
            <mxPoint x="60" y="430" as="targetPoint" />
          </mxGeometry>
        </mxCell>
        <mxCell id="y_fuz6T118yYJJkcoksZ-90" value="联易融客户端" style="shape=umlLifeline;perimeter=lifelinePerimeter;whiteSpace=wrap;html=1;container=1;collapsible=0;recursiveResize=0;outlineConnect=0;" parent="1" diagramCategory="uml" diagramName="Lifeline" vertex="1">
          <mxGeometry x="1960" y="39" width="120" height="2010" as="geometry" />
        </mxCell>
        <mxCell id="y_fuz6T118yYJJkcoksZ-92" value="运营" style="shape=umlLifeline;perimeter=lifelinePerimeter;whiteSpace=wrap;html=1;container=1;collapsible=0;recursiveResize=0;outlineConnect=0;" parent="1" diagramCategory="uml" diagramName="Lifeline" vertex="1">
          <mxGeometry x="2167" y="40" width="100" height="2000" as="geometry" />
        </mxCell>
        <mxCell id="y_fuz6T118yYJJkcoksZ-93" value="" style="html=1;points=[];perimeter=orthogonalPerimeter;fontColor=#FF0000;" parent="y_fuz6T118yYJJkcoksZ-92" diagramCategory="uml" diagramName="Activation" vertex="1">
          <mxGeometry x="45" y="1280" width="10" height="40" as="geometry" />
        </mxCell>
        <mxCell id="acTJYgkgQK9AkDypiMQt-2" value="" style="html=1;points=[];perimeter=orthogonalPerimeter;outlineConnect=0;targetShapes=umlLifeline;portConstraint=eastwest;newEdgeStyle={&quot;edgeStyle&quot;:&quot;elbowEdgeStyle&quot;,&quot;elbow&quot;:&quot;vertical&quot;,&quot;curved&quot;:0,&quot;rounded&quot;:0};" vertex="1" parent="y_fuz6T118yYJJkcoksZ-92">
          <mxGeometry x="45" y="400" width="10" height="40" as="geometry" />
        </mxCell>
        <mxCell id="acTJYgkgQK9AkDypiMQt-5" value="" style="html=1;points=[];perimeter=orthogonalPerimeter;fontColor=#FF0000;" diagramCategory="uml" diagramName="Activation" vertex="1" parent="y_fuz6T118yYJJkcoksZ-92">
          <mxGeometry x="45" y="1480" width="10" height="40" as="geometry" />
        </mxCell>
        <mxCell id="y_fuz6T118yYJJkcoksZ-94" value="定时获取文件" style="edgeStyle=orthogonalEdgeStyle;rounded=0;orthogonalLoop=1;jettySize=auto;html=1;" parent="1" source="y_fuz6T118yYJJkcoksZ-77" target="y_fuz6T118yYJJkcoksZ-75" edge="1">
          <mxGeometry relative="1" as="geometry" />
        </mxCell>
        <mxCell id="y_fuz6T118yYJJkcoksZ-95" value="文件取回" style="edgeStyle=orthogonalEdgeStyle;rounded=0;orthogonalLoop=1;jettySize=auto;html=1;" parent="1" source="y_fuz6T118yYJJkcoksZ-75" target="y_fuz6T118yYJJkcoksZ-78" edge="1">
          <mxGeometry relative="1" as="geometry">
            <Array as="points">
              <mxPoint x="1420" y="230" />
              <mxPoint x="1420" y="290" />
            </Array>
          </mxGeometry>
        </mxCell>
        <mxCell id="y_fuz6T118yYJJkcoksZ-96" value="文件展示" style="edgeStyle=orthogonalEdgeStyle;rounded=0;orthogonalLoop=1;jettySize=auto;html=1;fontColor=#0000FF;exitX=0.994;exitY=0.465;exitDx=0;exitDy=0;exitPerimeter=0;" parent="1" source="y_fuz6T118yYJJkcoksZ-79" target="y_fuz6T118yYJJkcoksZ-87" edge="1">
          <mxGeometry relative="1" as="geometry">
            <Array as="points">
              <mxPoint x="1604" y="370" />
            </Array>
          </mxGeometry>
        </mxCell>
        <mxCell id="y_fuz6T118yYJJkcoksZ-106" style="edgeStyle=orthogonalEdgeStyle;rounded=0;orthogonalLoop=1;jettySize=auto;html=1;exitX=1;exitY=0.5;exitDx=0;exitDy=0;entryX=0;entryY=0.5;entryDx=0;entryDy=0;" parent="1" source="y_fuz6T118yYJJkcoksZ-107" target="y_fuz6T118yYJJkcoksZ-116" edge="1">
          <mxGeometry relative="1" as="geometry">
            <Array as="points">
              <mxPoint x="1783" y="840" />
            </Array>
          </mxGeometry>
        </mxCell>
        <mxCell id="y_fuz6T118yYJJkcoksZ-107" value="" style="rounded=0;whiteSpace=wrap;html=1;" parent="1" diagramCategory="general" diagramName="Rectangle" vertex="1">
          <mxGeometry x="1480" y="700" width="303.25" height="180" as="geometry" />
        </mxCell>
        <mxCell id="y_fuz6T118yYJJkcoksZ-111" value="过滤掉此部分数据" style="rounded=0;whiteSpace=wrap;html=1;" parent="1" diagramCategory="general" diagramName="Rectangle" vertex="1">
          <mxGeometry x="1654" y="810" width="120" height="60" as="geometry" />
        </mxCell>
        <mxCell id="y_fuz6T118yYJJkcoksZ-112" value="" style="edgeStyle=orthogonalEdgeStyle;rounded=0;orthogonalLoop=1;jettySize=auto;html=1;entryX=0.5;entryY=0;entryDx=0;entryDy=0;" parent="1" source="y_fuz6T118yYJJkcoksZ-82" target="y_fuz6T118yYJJkcoksZ-115" edge="1">
          <mxGeometry relative="1" as="geometry">
            <mxPoint x="1600" y="720" as="targetPoint" />
          </mxGeometry>
        </mxCell>
        <mxCell id="y_fuz6T118yYJJkcoksZ-113" value="是" style="edgeStyle=orthogonalEdgeStyle;rounded=0;orthogonalLoop=1;jettySize=auto;html=1;exitX=1;exitY=0.5;exitDx=0;exitDy=0;entryX=0.5;entryY=0;entryDx=0;entryDy=0;" parent="1" source="y_fuz6T118yYJJkcoksZ-115" target="y_fuz6T118yYJJkcoksZ-111" edge="1">
          <mxGeometry relative="1" as="geometry">
            <Array as="points">
              <mxPoint x="1714" y="740" />
            </Array>
            <mxPoint x="1716" y="860" as="targetPoint" />
          </mxGeometry>
        </mxCell>
        <mxCell id="y_fuz6T118yYJJkcoksZ-114" style="edgeStyle=orthogonalEdgeStyle;rounded=0;orthogonalLoop=1;jettySize=auto;html=1;exitX=0.5;exitY=1;exitDx=0;exitDy=0;entryX=0.5;entryY=0;entryDx=0;entryDy=0;" parent="1" source="y_fuz6T118yYJJkcoksZ-115" target="y_fuz6T118yYJJkcoksZ-119" edge="1">
          <mxGeometry relative="1" as="geometry" />
        </mxCell>
        <mxCell id="y_fuz6T118yYJJkcoksZ-115" value="是否 EWB（母户）" style="rhombus;whiteSpace=wrap;html=1;" parent="1" diagramCategory="general" diagramName="Diamond" vertex="1">
          <mxGeometry x="1520" y="710" width="160" height="60" as="geometry" />
        </mxCell>
        <mxCell id="y_fuz6T118yYJJkcoksZ-116" value="&lt;span style&gt;写入渠道通知失败记录表account_notify_fail_info&lt;/span&gt;" style="rounded=0;whiteSpace=wrap;html=1;" parent="1" diagramCategory="general" diagramName="Rectangle" vertex="1">
          <mxGeometry x="2240" y="810" width="160" height="60" as="geometry" />
        </mxCell>
        <mxCell id="y_fuz6T118yYJJkcoksZ-118" value="有任意条件不满足" style="edgeStyle=orthogonalEdgeStyle;rounded=0;orthogonalLoop=1;jettySize=auto;html=1;exitX=1;exitY=0.5;exitDx=0;exitDy=0;entryX=0;entryY=0.5;entryDx=0;entryDy=0;fontColor=#FF0000;" parent="1" source="y_fuz6T118yYJJkcoksZ-119" target="y_fuz6T118yYJJkcoksZ-123" edge="1">
          <mxGeometry relative="1" as="geometry">
            <Array as="points">
              <mxPoint x="1680" y="1100" />
            </Array>
          </mxGeometry>
        </mxCell>
        <mxCell id="y_fuz6T118yYJJkcoksZ-120" value="" style="edgeStyle=orthogonalEdgeStyle;rounded=0;orthogonalLoop=1;jettySize=auto;html=1;" parent="1" source="y_fuz6T118yYJJkcoksZ-121" target="y_fuz6T118yYJJkcoksZ-119" edge="1">
          <mxGeometry relative="1" as="geometry" />
        </mxCell>
        <mxCell id="y_fuz6T118yYJJkcoksZ-121" value="1.交易参考号不为空&lt;br&gt;2.txn date不为空&lt;br&gt;3.value date不为空&lt;br&gt;4.&lt;span style=&quot;&quot;&gt;交易金额不为空&lt;br&gt;&lt;/span&gt;5.交易币种不为空&lt;br&gt;6.VA子账号不为空" style="shape=document;whiteSpace=wrap;html=1;boundedLbl=1;fontColor=#FF0000;align=left;" parent="1" diagramCategory="general" diagramName="Document" vertex="1">
          <mxGeometry x="1241" y="920" width="150" height="140" as="geometry" />
        </mxCell>
        <mxCell id="y_fuz6T118yYJJkcoksZ-122" style="edgeStyle=orthogonalEdgeStyle;rounded=0;orthogonalLoop=1;jettySize=auto;html=1;exitX=0.5;exitY=1;exitDx=0;exitDy=0;fontColor=#FF0000;entryX=1.05;entryY=0.253;entryDx=0;entryDy=0;entryPerimeter=0;" parent="1" source="y_fuz6T118yYJJkcoksZ-123" target="y_fuz6T118yYJJkcoksZ-89" edge="1">
          <mxGeometry relative="1" as="geometry">
            <Array as="points">
              <mxPoint x="2320" y="1290" />
            </Array>
            <mxPoint x="1810" y="1370" as="targetPoint" />
          </mxGeometry>
        </mxCell>
        <mxCell id="y_fuz6T118yYJJkcoksZ-123" value="数据存入入账异常办理，发送告警" style="rounded=0;whiteSpace=wrap;html=1;" parent="1" diagramCategory="general" diagramName="Rectangle" vertex="1">
          <mxGeometry x="2240" y="1070" width="160" height="60" as="geometry" />
        </mxCell>
        <mxCell id="y_fuz6T118yYJJkcoksZ-130" value="&lt;span style=&quot;color: rgb(0, 0, 0); font-family: Helvetica; font-size: 12px; font-style: normal; font-variant-ligatures: no-common-ligatures; font-variant-caps: normal; font-weight: 400; letter-spacing: normal; orphans: 2; text-align: center; text-indent: 0px; text-transform: none; widows: 2; word-spacing: 0px; -webkit-text-stroke-width: 0px; background-color: rgb(248, 249, 250); text-decoration-thickness: initial; text-decoration-style: initial; text-decoration-color: initial; float: none; display: inline !important;&quot;&gt;运营人工办理单据&lt;/span&gt;" style="edgeStyle=orthogonalEdgeStyle;rounded=0;orthogonalLoop=1;jettySize=auto;html=1;fontColor=#FF0000;exitX=-0.255;exitY=0.268;exitDx=0;exitDy=0;exitPerimeter=0;entryX=1.009;entryY=0.492;entryDx=0;entryDy=0;entryPerimeter=0;" parent="1" target="y_fuz6T118yYJJkcoksZ-89" edge="1">
          <mxGeometry relative="1" as="geometry">
            <mxPoint x="1812" y="1300" as="targetPoint" />
            <Array as="points">
              <mxPoint x="1991" y="1331" />
              <mxPoint x="1991" y="1300" />
            </Array>
            <mxPoint x="2211.45" y="1330.72" as="sourcePoint" />
          </mxGeometry>
        </mxCell>
        <mxCell id="y_fuz6T118yYJJkcoksZ-131" value="" style="edgeStyle=orthogonalEdgeStyle;rounded=0;orthogonalLoop=1;jettySize=auto;html=1;fontColor=#FF0000;entryX=1;entryY=0.5;entryDx=0;entryDy=0;exitX=0.022;exitY=0.762;exitDx=0;exitDy=0;exitPerimeter=0;" parent="1" source="y_fuz6T118yYJJkcoksZ-89" target="y_fuz6T118yYJJkcoksZ-125" edge="1">
          <mxGeometry relative="1" as="geometry">
            <Array as="points">
              <mxPoint x="1790" y="1311" />
            </Array>
            <mxPoint x="1790" y="1310" as="sourcePoint" />
          </mxGeometry>
        </mxCell>
        <mxCell id="acTJYgkgQK9AkDypiMQt-8" value="审核" style="html=1;verticalAlign=bottom;endArrow=open;dashed=1;endSize=8;edgeStyle=elbowEdgeStyle;elbow=vertical;curved=0;rounded=0;entryX=1;entryY=0.25;entryDx=0;entryDy=0;exitX=0.086;exitY=0.235;exitDx=0;exitDy=0;exitPerimeter=0;" edge="1" parent="1" source="acTJYgkgQK9AkDypiMQt-5" target="y_fuz6T118yYJJkcoksZ-128">
          <mxGeometry relative="1" as="geometry">
            <mxPoint x="1900" y="1500" as="sourcePoint" />
            <mxPoint x="1820" y="1500" as="targetPoint" />
            <Array as="points">
              <mxPoint x="1770" y="1530" />
            </Array>
          </mxGeometry>
        </mxCell>
      </root>
    </mxGraphModel>
  </diagram>
</mxfile>
